# Blender v2.79 (sub 0) OBJ File: ''
# www.blender.org
mtllib SCP table .mtl
o Cube
v 0.034128 0.419807 -0.027767
v 0.034128 0.419807 0.027767
v -0.034128 0.419807 0.027767
v -0.034128 0.419807 -0.027767
v 0.034128 -0.419807 -0.027767
v 0.034128 -0.419807 0.027767
v -0.034128 -0.419807 0.027767
v -0.034128 -0.419807 -0.027767
vn 0.0000 1.0000 -0.0000
vn 0.0000 -1.0000 0.0000
vn 1.0000 -0.0000 0.0000
vn -0.0000 0.0000 1.0000
vn -1.0000 0.0000 -0.0000
vn 0.0000 -0.0000 -1.0000
usemtl Material
s off
f 1//1 4//1 3//1 2//1
f 5//2 6//2 7//2 8//2
f 1//3 2//3 6//3 5//3
f 2//4 3//4 7//4 6//4
f 3//5 4//5 8//5 7//5
f 5//6 8//6 4//6 1//6
o Cube.001
v 0.034128 0.419807 -1.432243
v 0.034128 0.419807 -1.376708
v -0.034128 0.419807 -1.376708
v -0.034128 0.419807 -1.432243
v 0.034128 -0.419807 -1.432243
v 0.034128 -0.419807 -1.376708
v -0.034128 -0.419807 -1.376708
v -0.034128 -0.419807 -1.432243
vn 0.0000 1.0000 -0.0000
vn 0.0000 -1.0000 0.0000
vn 1.0000 -0.0000 0.0000
vn 0.0000 0.0000 1.0000
vn -1.0000 0.0000 -0.0000
vn 0.0000 0.0000 -1.0000
usemtl Material.001
s off
f 9//7 12//7 11//7 10//7
f 13//8 14//8 15//8 16//8
f 9//9 10//9 14//9 13//9
f 10//10 11//10 15//10 14//10
f 11//11 12//11 16//11 15//11
f 13//12 16//12 12//12 9//12
o Cube.003
v 0.972908 0.419807 -0.027767
v 0.972908 0.419807 0.027767
v 0.904653 0.419807 0.027767
v 0.904653 0.419807 -0.027767
v 0.972908 -0.419807 -0.027767
v 0.972908 -0.419807 0.027767
v 0.904653 -0.419807 0.027767
v 0.904653 -0.419807 -0.027767
vn 0.0000 1.0000 0.0000
vn 0.0000 -1.0000 0.0000
vn 1.0000 -0.0000 0.0000
vn -0.0000 0.0000 1.0000
vn -1.0000 -0.0000 0.0000
vn 0.0000 -0.0000 -1.0000
usemtl Material.003
s off
f 17//13 20//13 19//13 18//13
f 21//14 22//14 23//14 24//14
f 17//15 18//15 22//15 21//15
f 18//16 19//16 23//16 22//16
f 19//17 20//17 24//17 23//17
f 21//18 24//18 20//18 17//18
o Cube.002
v 0.972908 0.419807 -1.432243
v 0.972908 0.419807 -1.376708
v 0.904653 0.419807 -1.376708
v 0.904653 0.419807 -1.432243
v 0.972908 -0.419807 -1.432243
v 0.972908 -0.419807 -1.376708
v 0.904653 -0.419807 -1.376708
v 0.904653 -0.419807 -1.432243
vn 0.0000 1.0000 0.0000
vn 0.0000 -1.0000 0.0000
vn 1.0000 0.0000 0.0000
vn 0.0000 0.0000 1.0000
vn -1.0000 0.0000 0.0000
vn 0.0000 0.0000 -1.0000
usemtl Material.002
s off
f 25//19 28//19 27//19 26//19
f 29//20 30//20 31//20 32//20
f 25//21 26//21 30//21 29//21
f 26//22 27//22 31//22 30//22
f 27//23 28//23 32//23 31//23
f 29//24 32//24 28//24 25//24
o Cube.004
v 1.134649 0.444950 -1.453192
v 1.134649 0.444950 0.080005
v -0.141033 0.444950 0.080005
v -0.141033 0.444950 -1.453192
v 1.134650 0.395185 -1.453192
v 1.134649 0.395185 0.080006
v -0.141034 0.395185 0.080005
v -0.141033 0.395185 -1.453192
vn 0.0000 1.0000 -0.0000
vn 0.0000 -1.0000 0.0000
vn 1.0000 -0.0000 0.0000
vn -0.0000 0.0000 1.0000
vn -1.0000 0.0000 -0.0000
vn 0.0000 -0.0000 -1.0000
usemtl Material.004
s off
f 33//25 36//25 35//25 34//25
f 37//26 38//26 39//26 40//26
f 33//27 34//27 38//27 37//27
f 34//28 35//28 39//28 38//28
f 35//29 36//29 40//29 39//29
f 37//30 40//30 36//30 33//30
